<?xml version="1.0" encoding="utf-8"?>
<!-- Generator: Adobe Illustrator 21.0.0, SVG Export Plug-In . SVG Version: 6.00 Build 0)  -->
<svg version="1.1" id="Layer_1" xmlns="http://www.w3.org/2000/svg" xmlns:xlink="http://www.w3.org/1999/xlink" x="0px" y="0px"
	 viewBox="0 0 24 24" style="enable-background:new 0 0 24 24;" xml:space="preserve">
<style type="text/css">
	.st0{filter:url(#Adobe_OpacityMaskFilter);}
	.st1{fill:#FFFFFF;}
	.st2{mask:url(#mask-2);}
	.st3{fill:#3D84DE;}
</style>
<g id="bell">
	<defs>
		<filter id="Adobe_OpacityMaskFilter" filterUnits="userSpaceOnUse" x="0" y="0" width="24" height="24">
			<feColorMatrix  type="matrix" values="1 0 0 0 0  0 1 0 0 0  0 0 1 0 0  0 0 0 1 0"/>
		</filter>
	</defs>
	<mask maskUnits="userSpaceOnUse" x="0" y="0" width="24" height="24" id="mask-2">
		<g class="st0">
			<path id="path-1" class="st1" d="M18.3,14.3c-0.5-0.5-1.1-1.1-1.1-3.6c0-2.6-1.9-4.8-4.4-5.1C12.9,5.4,13,5.2,13,5
				c0-0.6-0.4-1-1-1s-1,0.4-1,1c0,0.2,0.1,0.4,0.2,0.6C8.7,6,6.8,8.1,6.8,10.7c0,2.6-0.5,3.1-1.1,3.6C4.2,15.8,5.3,18,7.1,18H10
				c0,1.1,0.9,2,2,2s2-0.9,2-2h2.9C18.7,18,19.8,15.8,18.3,14.3z M12,18.8c-0.4,0-0.8-0.3-0.8-0.8h1.5C12.8,18.4,12.4,18.8,12,18.8z
				 M16.9,16.5H7.1c-0.5,0-0.8-0.6-0.4-1c0.9-0.9,1.6-1.7,1.6-4.8C8.3,8.7,10,7,12,7s3.7,1.7,3.7,3.7c0,3.1,0.7,3.9,1.6,4.8
				C17.7,15.9,17.4,16.5,16.9,16.5z"/>
		</g>
	</mask>
	<g id="Color_Primacy" class="st2">
		<rect y="0" class="st3" width="24" height="24"/>
	</g>
</g>
</svg>
