<?xml version="1.0" encoding="utf-8"?>
<!-- Generator: Adobe Illustrator 21.0.0, SVG Export Plug-In . SVG Version: 6.00 Build 0)  -->
<svg version="1.1" id="Layer_1" xmlns="http://www.w3.org/2000/svg" xmlns:xlink="http://www.w3.org/1999/xlink" x="0px" y="0px"
	 viewBox="0 0 24 24" style="enable-background:new 0 0 24 24;" xml:space="preserve">
<style type="text/css">
	.st0{filter:url(#Adobe_OpacityMaskFilter);}
	.st1{fill:#FFFFFF;}
	.st2{mask:url(#mask-2);}
	.st3{fill:#3D84DE;}
</style>
<g id="file-alt">
	<defs>
		<filter id="Adobe_OpacityMaskFilter" filterUnits="userSpaceOnUse" x="0" y="0" width="24" height="24">
			<feColorMatrix  type="matrix" values="1 0 0 0 0  0 1 0 0 0  0 0 1 0 0  0 0 0 1 0"/>
		</filter>
	</defs>
	<mask maskUnits="userSpaceOnUse" x="0" y="0" width="24" height="24" id="mask-2">
		<g class="st0">
			<path id="path-1" class="st1" d="M15,11.8v0.9c0,0.2-0.2,0.4-0.4,0.4H9.4C9.2,13,9,12.8,9,12.6v-0.9c0-0.2,0.2-0.4,0.4-0.4h5.2
				C14.8,11.4,15,11.5,15,11.8z M14.6,14H9.4C9.2,14,9,14.2,9,14.4v0.9c0,0.2,0.2,0.4,0.4,0.4h5.2c0.2,0,0.4-0.2,0.4-0.4v-0.9
				C15,14.2,14.8,14,14.6,14z M18,8.1v10.4c0,0.8-0.7,1.5-1.5,1.5h-9C6.7,20,6,19.3,6,18.5v-13C6,4.7,6.7,4,7.5,4h6.4
				c0.4,0,0.8,0.2,1.1,0.4l2.6,2.6C17.8,7.3,18,7.7,18,8.1z M14,5.6V8h2.4L14,5.6z M16.5,18.5v-9h-3.2c-0.4,0-0.8-0.3-0.8-0.8V5.5
				h-5v13H16.5z"/>
		</g>
	</mask>
	<g id="Color_Primacy" class="st2">
		<rect y="0" class="st3" width="24" height="24"/>
	</g>
</g>
</svg>
