<?xml version="1.0" encoding="utf-8"?>
<!-- Generator: Adobe Illustrator 21.0.0, SVG Export Plug-In . SVG Version: 6.00 Build 0)  -->
<svg version="1.1" id="Layer_1" xmlns="http://www.w3.org/2000/svg" xmlns:xlink="http://www.w3.org/1999/xlink" x="0px" y="0px"
	 viewBox="0 0 24 24" style="enable-background:new 0 0 24 24;" xml:space="preserve">
<style type="text/css">
	.st0{filter:url(#Adobe_OpacityMaskFilter);}
	.st1{fill:#FFFFFF;}
	.st2{mask:url(#mask-2);}
	.st3{fill:#3D84DE;}
</style>
<g id="hdd">
	<defs>
		<filter id="Adobe_OpacityMaskFilter" filterUnits="userSpaceOnUse" x="0" y="0" width="24" height="24">
			<feColorMatrix  type="matrix" values="1 0 0 0 0  0 1 0 0 0  0 0 1 0 0  0 0 0 1 0"/>
		</filter>
	</defs>
	<mask maskUnits="userSpaceOnUse" x="0" y="0" width="24" height="24" id="mask-2">
		<g class="st0">
			<path id="path-1" class="st1" d="M19.8,11.4L16.8,7c-0.2-0.4-0.7-0.6-1.1-0.6H8.3C7.8,6.4,7.4,6.6,7.2,7l-2.9,4.4
				C4.1,11.6,4,11.9,4,12.2v4c0,0.8,0.6,1.4,1.3,1.4h13.3c0.7,0,1.3-0.6,1.3-1.4v-4C20,11.9,19.9,11.6,19.8,11.4z M8.3,7.8h7.5
				l2.2,3.3H6.1L8.3,7.8z M18.7,16.2H5.3v-3.8h13.3V16.2z M17.8,14.3c0,0.5-0.4,0.9-0.9,0.9S16,14.9,16,14.3s0.4-0.9,0.9-0.9
				S17.8,13.8,17.8,14.3z M15.1,14.3c0,0.5-0.4,0.9-0.9,0.9s-0.9-0.4-0.9-0.9s0.4-0.9,0.9-0.9S15.1,13.8,15.1,14.3z"/>
		</g>
	</mask>
	<g id="Color_Primacy" class="st2">
		<rect y="0" class="st3" width="24" height="24"/>
	</g>
</g>
</svg>
